<svg id="Group_8" data-name="Group 8" xmlns="http://www.w3.org/2000/svg" width="91.699" height="72.248" viewBox="0 0 91.699 72.248">
  <g id="Group_6" data-name="Group 6">
    <path id="Path_17" data-name="Path 17" d="M-348.534-3.4a238.568,238.568,0,0,1,7.954,42.612c13.468,3.13,27.184,8.113,38.2,16.691-.006-13.359,0-44.831,0-44.831a63.766,63.766,0,0,0-17.372-9.657A79.9,79.9,0,0,0-348.534-3.4Z" transform="translate(348.534 16.343)" fill="#841e25"/>
    <path id="Path_18" data-name="Path 18" d="M-301.46,7.821S-314.99-6.088-343.5-7.2l-1.1-4.682S-311.321-9.9-301.46,7.821Z" transform="translate(347.618 18.315)" fill="#fdc800"/>
    <path id="Path_19" data-name="Path 19" d="M-300.538,3.393s-10.984-16.325-39.216-19.171l-.9-4.493S-313.694-17.725-300.538,3.393Z" transform="translate(346.696 20.271)" fill="#bec5d0"/>
  </g>
  <g id="Group_7" data-name="Group 7" transform="translate(45.542 0.002)">
    <path id="Path_20" data-name="Path 20" d="M-242.179-3.4a238.523,238.523,0,0,0-7.954,42.612c-13.469,3.13-27.184,8.113-38.2,16.691.005-13.359,0-44.832,0-44.832a63.778,63.778,0,0,1,17.372-9.657A79.907,79.907,0,0,1-242.179-3.4Z" transform="translate(288.337 16.341)" fill="#841e25"/>
    <path id="Path_21" data-name="Path 21" d="M-288.337,7.823S-274.807-6.087-246.294-7.2l1.1-4.682S-278.477-9.9-288.337,7.823Z" transform="translate(288.337 18.313)" fill="#fdc800"/>
    <path id="Path_22" data-name="Path 22" d="M-288.337,3.4s10.983-16.325,39.215-19.171l.9-4.493S-275.182-17.723-288.337,3.4Z" transform="translate(288.337 20.269)" fill="#bec5d0"/>
  </g>
</svg>
