<svg id="icon_maps_track_24px" data-name="icon/maps/track_24px" xmlns="http://www.w3.org/2000/svg" xmlns:xlink="http://www.w3.org/1999/xlink" width="24.337" height="29.978" viewBox="0 0 24.337 29.978">
  <defs>
    <clipPath id="clip-path">
      <path id="home" d="M9.464,29.978h0L0,29.976V10.352L9.164,1.188a4.055,4.055,0,0,1,5.736,0l9.437,9.436v19.35l-9.465,0V21.865a2.7,2.7,0,0,0-5.409,0v8.113Zm2.7-13.522a5.415,5.415,0,0,1,5.409,5.409v5.407h4.056V11.744L12.988,3.1a1.35,1.35,0,0,0-1.911,0L2.7,11.472v15.8H6.761V21.865A5.414,5.414,0,0,1,12.168,16.456Z" fill="#2d2d2d"/>
    </clipPath>
  </defs>
  <g id="Group_5" data-name="Group 5" transform="translate(0 0)">
    <path id="home-2" data-name="home" d="M9.464,29.978h0L0,29.976V10.352L9.164,1.188a4.055,4.055,0,0,1,5.736,0l9.437,9.436v19.35l-9.465,0V21.865a2.7,2.7,0,0,0-5.409,0v8.113Zm2.7-13.522a5.415,5.415,0,0,1,5.409,5.409v5.407h4.056V11.744L12.988,3.1a1.35,1.35,0,0,0-1.911,0L2.7,11.472v15.8H6.761V21.865A5.414,5.414,0,0,1,12.168,16.456Z" transform="translate(0 0)" fill="#fff"/>
  </g>
</svg>
