<svg xmlns="http://www.w3.org/2000/svg" width="180.784" height="399.314" viewBox="0 0 180.784 399.314">
  <g id="Group_8" data-name="Group 8" transform="translate(-0.358)">
    <circle id="Ellipse_91" data-name="Ellipse 91" cx="2.98" cy="2.98" r="2.98" transform="translate(0.358 0)" fill="#70c217"/>
    <circle id="Ellipse_92" data-name="Ellipse 92" cx="2.98" cy="2.98" r="2.98" transform="translate(44.064 0)" fill="#70c217"/>
    <circle id="Ellipse_93" data-name="Ellipse 93" cx="2.98" cy="2.98" r="2.98" transform="translate(87.77 0)" fill="#70c217"/>
    <circle id="Ellipse_94" data-name="Ellipse 94" cx="2.98" cy="2.98" r="2.98" transform="translate(131.476 0)" fill="#70c217"/>
    <circle id="Ellipse_95" data-name="Ellipse 95" cx="2.98" cy="2.98" r="2.98" transform="translate(175.182 0)" fill="#70c217"/>
    <circle id="Ellipse_96" data-name="Ellipse 96" cx="2.98" cy="2.98" r="2.98" transform="translate(0.358 43.706)" fill="#70c217"/>
    <circle id="Ellipse_97" data-name="Ellipse 97" cx="2.98" cy="2.98" r="2.98" transform="translate(44.064 43.706)" fill="#70c217"/>
    <circle id="Ellipse_98" data-name="Ellipse 98" cx="2.98" cy="2.98" r="2.98" transform="translate(87.77 43.706)" fill="#70c217"/>
    <circle id="Ellipse_99" data-name="Ellipse 99" cx="2.98" cy="2.98" r="2.98" transform="translate(131.476 43.706)" fill="#70c217"/>
    <circle id="Ellipse_100" data-name="Ellipse 100" cx="2.98" cy="2.98" r="2.98" transform="translate(175.182 43.706)" fill="#70c217"/>
    <circle id="Ellipse_101" data-name="Ellipse 101" cx="2.98" cy="2.98" r="2.98" transform="translate(0.358 87.412)" fill="#70c217"/>
    <circle id="Ellipse_102" data-name="Ellipse 102" cx="2.98" cy="2.98" r="2.98" transform="translate(44.064 87.412)" fill="#70c217"/>
    <circle id="Ellipse_103" data-name="Ellipse 103" cx="2.98" cy="2.98" r="2.98" transform="translate(87.77 87.412)" fill="#70c217"/>
    <circle id="Ellipse_104" data-name="Ellipse 104" cx="2.98" cy="2.98" r="2.98" transform="translate(131.476 87.412)" fill="#70c217"/>
    <circle id="Ellipse_105" data-name="Ellipse 105" cx="2.98" cy="2.98" r="2.98" transform="translate(175.182 87.412)" fill="#70c217"/>
    <circle id="Ellipse_106" data-name="Ellipse 106" cx="2.98" cy="2.98" r="2.98" transform="translate(0.358 131.118)" fill="#70c217"/>
    <circle id="Ellipse_107" data-name="Ellipse 107" cx="2.98" cy="2.98" r="2.98" transform="translate(44.064 131.118)" fill="#70c217"/>
    <circle id="Ellipse_108" data-name="Ellipse 108" cx="2.98" cy="2.98" r="2.98" transform="translate(87.77 131.118)" fill="#70c217"/>
    <circle id="Ellipse_109" data-name="Ellipse 109" cx="2.98" cy="2.98" r="2.98" transform="translate(131.476 131.118)" fill="#70c217"/>
    <circle id="Ellipse_110" data-name="Ellipse 110" cx="2.98" cy="2.98" r="2.98" transform="translate(175.182 131.118)" fill="#70c217"/>
    <circle id="Ellipse_111" data-name="Ellipse 111" cx="2.98" cy="2.98" r="2.98" transform="translate(0.358 174.824)" fill="#70c217"/>
    <circle id="Ellipse_112" data-name="Ellipse 112" cx="2.98" cy="2.98" r="2.98" transform="translate(44.064 174.824)" fill="#70c217"/>
    <circle id="Ellipse_113" data-name="Ellipse 113" cx="2.98" cy="2.98" r="2.98" transform="translate(87.77 174.824)" fill="#70c217"/>
    <circle id="Ellipse_114" data-name="Ellipse 114" cx="2.98" cy="2.98" r="2.98" transform="translate(131.476 174.824)" fill="#70c217"/>
    <circle id="Ellipse_115" data-name="Ellipse 115" cx="2.98" cy="2.98" r="2.98" transform="translate(175.182 174.824)" fill="#70c217"/>
    <circle id="Ellipse_116" data-name="Ellipse 116" cx="2.98" cy="2.98" r="2.98" transform="translate(0.358 218.53)" fill="#70c217"/>
    <circle id="Ellipse_117" data-name="Ellipse 117" cx="2.98" cy="2.98" r="2.98" transform="translate(44.064 218.53)" fill="#70c217"/>
    <circle id="Ellipse_118" data-name="Ellipse 118" cx="2.98" cy="2.98" r="2.98" transform="translate(87.77 218.53)" fill="#70c217"/>
    <circle id="Ellipse_119" data-name="Ellipse 119" cx="2.98" cy="2.98" r="2.98" transform="translate(131.476 218.53)" fill="#70c217"/>
    <circle id="Ellipse_120" data-name="Ellipse 120" cx="2.98" cy="2.98" r="2.98" transform="translate(175.182 218.53)" fill="#70c217"/>
    <circle id="Ellipse_121" data-name="Ellipse 121" cx="2.98" cy="2.98" r="2.98" transform="translate(0.358 262.236)" fill="#70c217"/>
    <circle id="Ellipse_122" data-name="Ellipse 122" cx="2.98" cy="2.98" r="2.98" transform="translate(44.064 262.236)" fill="#70c217"/>
    <circle id="Ellipse_123" data-name="Ellipse 123" cx="2.98" cy="2.98" r="2.98" transform="translate(87.77 262.236)" fill="#70c217"/>
    <circle id="Ellipse_124" data-name="Ellipse 124" cx="2.98" cy="2.98" r="2.98" transform="translate(131.476 262.236)" fill="#70c217"/>
    <circle id="Ellipse_125" data-name="Ellipse 125" cx="2.98" cy="2.98" r="2.98" transform="translate(175.182 262.236)" fill="#70c217"/>
    <circle id="Ellipse_126" data-name="Ellipse 126" cx="2.98" cy="2.98" r="2.98" transform="translate(0.358 305.942)" fill="#70c217"/>
    <circle id="Ellipse_127" data-name="Ellipse 127" cx="2.98" cy="2.98" r="2.98" transform="translate(44.064 305.942)" fill="#70c217"/>
    <circle id="Ellipse_128" data-name="Ellipse 128" cx="2.98" cy="2.98" r="2.98" transform="translate(87.77 305.942)" fill="#70c217"/>
    <circle id="Ellipse_129" data-name="Ellipse 129" cx="2.98" cy="2.98" r="2.98" transform="translate(131.476 305.942)" fill="#70c217"/>
    <circle id="Ellipse_130" data-name="Ellipse 130" cx="2.98" cy="2.98" r="2.98" transform="translate(175.182 305.942)" fill="#70c217"/>
    <circle id="Ellipse_131" data-name="Ellipse 131" cx="2.98" cy="2.98" r="2.98" transform="translate(0.358 349.648)" fill="#70c217"/>
    <circle id="Ellipse_132" data-name="Ellipse 132" cx="2.98" cy="2.98" r="2.98" transform="translate(44.064 349.648)" fill="#70c217"/>
    <circle id="Ellipse_133" data-name="Ellipse 133" cx="2.98" cy="2.98" r="2.98" transform="translate(87.77 349.648)" fill="#70c217"/>
    <circle id="Ellipse_134" data-name="Ellipse 134" cx="2.98" cy="2.98" r="2.98" transform="translate(131.476 349.648)" fill="#70c217"/>
    <circle id="Ellipse_135" data-name="Ellipse 135" cx="2.98" cy="2.98" r="2.98" transform="translate(175.182 349.648)" fill="#70c217"/>
    <circle id="Ellipse_136" data-name="Ellipse 136" cx="2.98" cy="2.98" r="2.98" transform="translate(0.358 393.354)" fill="#70c217"/>
    <circle id="Ellipse_137" data-name="Ellipse 137" cx="2.98" cy="2.98" r="2.98" transform="translate(44.064 393.354)" fill="#70c217"/>
    <circle id="Ellipse_138" data-name="Ellipse 138" cx="2.98" cy="2.98" r="2.98" transform="translate(87.77 393.354)" fill="#70c217"/>
    <circle id="Ellipse_139" data-name="Ellipse 139" cx="2.98" cy="2.98" r="2.98" transform="translate(131.476 393.354)" fill="#70c217"/>
    <circle id="Ellipse_140" data-name="Ellipse 140" cx="2.98" cy="2.98" r="2.98" transform="translate(175.182 393.354)" fill="#70c217"/>
  </g>
</svg>
